<svg width="90" height="90" viewBox="0 0 90 90" fill="none" xmlns="http://www.w3.org/2000/svg">
<g clip-path="url(#clip0_6772_13379)">
<path d="M83.7908 5.58605H74.0152V4.18954C74.0152 1.87552 72.1397 0 69.8257 0C67.5117 0 65.6361 1.87552 65.6361 4.18954V5.58605H23.7407V4.18954C23.7407 1.87552 21.8652 0 19.5512 0C17.2372 0 15.3617 1.87552 15.3617 4.18954V5.58605H5.58605C2.49836 5.58605 0 8.08442 0 11.1721V83.7908C0 86.8785 2.49836 89.3769 5.58605 89.3769H83.7908C86.8785 89.3769 89.3769 86.8785 89.3769 83.7908V11.1721C89.3769 8.08442 86.8785 5.58605 83.7908 5.58605ZM68.4292 4.18954C68.4292 3.41727 69.0534 2.79303 69.8257 2.79303C70.598 2.79303 71.2222 3.41727 71.2222 4.18954V8.37908V13.9651C71.2222 14.7374 70.598 15.3617 69.8257 15.3617C69.0534 15.3617 68.4292 14.7374 68.4292 13.9651V8.37908V4.18954ZM18.1547 4.18954C18.1547 3.41727 18.7789 2.79303 19.5512 2.79303C20.3235 2.79303 20.9477 3.41727 20.9477 4.18954V8.37908V13.9651C20.9477 14.7374 20.3235 15.3617 19.5512 15.3617C18.7789 15.3617 18.1547 14.7374 18.1547 13.9651V8.37908V4.18954ZM86.5838 83.7908C86.5838 85.3326 85.3326 86.5838 83.7908 86.5838H5.58605C4.0443 86.5838 2.79303 85.3326 2.79303 83.7908V23.7407H86.5838V83.7908ZM86.5838 20.9477H2.79303V11.1721C2.79303 9.63036 4.0443 8.37908 5.58605 8.37908H15.3617V13.9651C15.3617 16.2792 17.2372 18.1547 19.5512 18.1547C21.8652 18.1547 23.7407 16.2792 23.7407 13.9651V8.37908H65.6361V13.9651C65.6361 16.2792 67.5117 18.1547 69.8257 18.1547C72.1397 18.1547 74.0152 16.2792 74.0152 13.9651V8.37908H83.7908C85.3326 8.37908 86.5838 9.63036 86.5838 11.1721V20.9477Z" fill="#C94D00"/>
<path d="M10.398 31.7125C11.2154 31.7125 11.878 31.0498 11.878 30.2324C11.878 29.4151 11.2154 28.7524 10.398 28.7524C9.58059 28.7524 8.91797 29.4151 8.91797 30.2324C8.91797 31.0498 9.58059 31.7125 10.398 31.7125Z" fill="#C94D00"/>
<path d="M16.3184 37.6329C17.1358 37.6329 17.7984 36.9702 17.7984 36.1529C17.7984 35.3355 17.1358 34.6729 16.3184 34.6729C15.501 34.6729 14.8384 35.3355 14.8384 36.1529C14.8384 36.9702 15.501 37.6329 16.3184 37.6329Z" fill="#C94D00"/>
<path d="M79.4668 76.1138C80.2842 76.1138 80.9468 75.4512 80.9468 74.6338C80.9468 73.8164 80.2842 73.1538 79.4668 73.1538C78.6494 73.1538 77.9868 73.8164 77.9868 74.6338C77.9868 75.4512 78.6494 76.1138 79.4668 76.1138Z" fill="#C94D00"/>
<path d="M32.2095 53.8791L41.4282 63.0698L59.8657 44.6885" stroke="#C94D00" stroke-width="4" stroke-linecap="round" stroke-linejoin="round"/>
</g>
<defs>
<clipPath id="clip0_6772_13379">
<rect width="90" height="90" fill="white"/>
</clipPath>
</defs>
</svg>
