<svg width="90" height="90" viewBox="0 0 90 90" fill="none" xmlns="http://www.w3.org/2000/svg">
<g clip-path="url(#clip0_6643_13470)">
<path d="M82.8192 15.3192H65.3381C64.9046 14.0971 63.9348 13.1273 62.7128 12.6939V1.43613C62.7128 0.642832 62.0699 0 61.2766 0H28.7234C27.9301 0 27.2872 0.642832 27.2872 1.43613V12.6939C26.0652 13.1273 25.0954 14.0971 24.6619 15.3192H7.18084C3.22119 15.3192 0 18.5404 0 22.5V82.8192C0 86.7788 3.22119 90 7.18084 90H82.8192C86.7788 90 90 86.7788 90 82.8192V22.5C90 18.5404 86.7788 15.3192 82.8192 15.3192ZM30.1595 2.87227H59.8403V5.74453H30.1595V2.87227ZM30.1595 8.61697H59.8403V15.3192H30.1595V8.61697ZM7.18084 87.1277C4.80516 87.1277 2.87227 85.1948 2.87227 82.8192V72.8341C10.4389 73.5196 16.4802 79.5609 17.1657 87.1276H7.18084V87.1277ZM87.1277 82.8192C87.1277 85.1948 85.1948 87.1277 82.8192 87.1277H72.8341C73.5196 79.5611 79.5609 73.5198 87.1276 72.8343V82.8192H87.1277ZM87.1277 39.7341C87.1277 42.1098 85.1948 44.0427 82.8192 44.0427H52.1808V36.8619C52.1808 36.0686 51.538 35.4257 50.7447 35.4257H39.2553C38.462 35.4257 37.8192 36.0686 37.8192 36.8619V54.096C37.8192 58.0556 41.0404 61.2768 45 61.2768C48.9596 61.2768 52.1808 58.0556 52.1808 54.096V46.9151H82.8192C84.4346 46.9151 85.9266 46.3788 87.1277 45.4751V69.9486C77.9755 70.6481 70.6479 77.9757 69.9485 87.1279H20.0515C19.3521 77.9757 12.0245 70.6481 2.87227 69.9486V45.475C4.0732 46.3787 5.56541 46.915 7.18084 46.915H33.5106C34.3039 46.915 34.9467 46.2721 34.9467 45.4788C34.9467 44.6855 34.3039 44.0427 33.5106 44.0427H7.18084C4.80516 44.0427 2.87227 42.1098 2.87227 39.7341V22.5C2.87227 20.1243 4.80516 18.1914 7.18084 18.1914H82.8192C85.1948 18.1914 87.1277 20.1243 87.1277 22.5V39.7341ZM40.6914 49.7872V38.2978H49.3084V49.7872H40.6914ZM49.3086 52.6595V54.0956C49.3086 56.4713 47.3757 58.4042 45 58.4042C42.6243 58.4042 40.6914 56.4713 40.6914 54.0956V52.6595H49.3086Z" fill="#C94D00"/>
<path d="M8.6168 25.3723C9.40995 25.3723 10.0529 24.7293 10.0529 23.9361C10.0529 23.143 9.40995 22.5 8.6168 22.5C7.82364 22.5 7.18066 23.143 7.18066 23.9361C7.18066 24.7293 7.82364 25.3723 8.6168 25.3723Z" fill="#C94D00"/>
<path d="M14.3619 31.1169C15.1551 31.1169 15.798 30.4739 15.798 29.6808C15.798 28.8876 15.1551 28.2446 14.3619 28.2446C13.5688 28.2446 12.9258 28.8876 12.9258 29.6808C12.9258 30.4739 13.5688 31.1169 14.3619 31.1169Z" fill="#C94D00"/>
<path d="M75.6383 68.4577C76.4314 68.4577 77.0744 67.8147 77.0744 67.0216C77.0744 66.2284 76.4314 65.5854 75.6383 65.5854C74.8451 65.5854 74.2021 66.2284 74.2021 67.0216C74.2021 67.8147 74.8451 68.4577 75.6383 68.4577Z" fill="#C94D00"/>
</g>
<defs>
<clipPath id="clip0_6643_13470">
<rect width="90" height="90" fill="white"/>
</clipPath>
</defs>
</svg>
