<svg width="90" height="90" viewBox="0 0 90 90" fill="none" xmlns="http://www.w3.org/2000/svg">
<g clip-path="url(#clip0_6675_13352)">
<path d="M91.5712 57.1017L79.4143 30.0967L66.2366 36.0127L67.1182 37.9848C64.311 38.8896 61.2254 39.0984 58.0933 38.588C56.0517 38.2632 53.9869 38.2632 51.9685 38.588C50.3677 38.8432 48.7668 39.3304 47.2588 40.0032C46.5628 40.3048 45.89 40.676 45.2172 41.0936L39.3476 43.9704C38.4428 43.808 37.5379 43.692 36.6331 43.6456C33.4315 43.5064 30.4155 42.6712 27.8171 41.2096L29.0699 39.4928L17.3074 31.0247L0 55.0601L11.7161 63.505L12.9689 61.7882C15.1961 63.7834 16.9362 66.3818 18.073 69.3746C18.1658 69.6298 18.2586 69.8618 18.3746 70.117L16.8898 72.1587C15.4049 74.2235 15.8689 77.1235 17.9338 78.6083C18.5834 79.0723 19.349 79.3739 20.1146 79.4435C20.1146 79.6755 20.1378 79.9075 20.161 80.1395C20.3698 81.346 21.0194 82.4132 22.017 83.1556C22.8058 83.7356 23.757 84.0372 24.7082 84.0372C24.8474 84.0372 24.9634 84.0372 25.1026 84.014C25.3578 85.0348 25.961 85.986 26.889 86.6588C27.7011 87.2388 28.6523 87.5404 29.5803 87.5404C30.0675 87.5404 30.5547 87.4708 31.0187 87.3084C31.3435 88.0276 31.8539 88.654 32.5035 89.118C33.2923 89.698 34.2435 89.9996 35.1947 89.9996C35.4499 89.9996 35.7051 89.9764 35.9371 89.93C37.1667 89.7212 38.2339 89.0716 38.9532 88.074L39.8812 86.7748L44.3124 89.3268C45.1012 89.7908 45.9828 89.9996 46.818 89.9996C48.1868 89.9996 49.5093 89.4428 50.4373 88.3756C50.9477 87.7724 51.3189 87.0764 51.5045 86.3108C52.4093 86.6124 53.3605 86.682 54.3349 86.5196C55.9125 86.2644 57.2813 85.406 58.2093 84.1068C58.8125 83.2484 59.2069 82.2508 59.2997 81.23C59.3461 80.766 59.3461 80.3019 59.2765 79.8611C60.9006 79.7683 62.455 79.0491 63.5222 77.7499C64.427 76.6595 64.891 75.3371 64.891 73.9451C65.2158 73.9683 65.5638 73.9451 65.9118 73.8755C67.1878 73.6667 68.3014 72.9707 69.0438 71.9267C69.6702 71.0451 70.0646 70.0243 70.1806 68.9338C70.1806 68.8874 70.1806 68.8178 70.2038 68.7714C70.5286 68.3538 70.8302 67.913 71.1087 67.4722C72.8023 64.781 75.0063 62.6234 77.5351 61.1154L78.3935 62.9946L91.5712 57.1017ZM87.2792 55.4545L80.0407 58.7025L70.5518 37.6135L77.7903 34.3655L87.2792 55.4545ZM18.0498 35.5719L24.4994 40.212L11.5073 58.2153L10.9737 58.9578L4.52404 54.3177L18.0498 35.5719ZM19.5346 74.0611L21.553 71.2539L21.669 71.0915C21.8778 70.7899 22.2026 70.6043 22.5506 70.5347C22.6202 70.5347 22.6898 70.5115 22.7362 70.5115C22.7594 70.5115 22.7594 70.5115 22.7826 70.5115C22.8522 70.5115 22.8986 70.5115 22.9682 70.5347C22.9914 70.5347 22.9914 70.5347 23.0146 70.5347C23.061 70.5347 23.1074 70.5579 23.177 70.5811C23.177 70.5811 23.2002 70.5811 23.2234 70.5811C23.2698 70.6043 23.3394 70.6275 23.3858 70.6507C23.409 70.6507 23.409 70.6739 23.4322 70.6739C23.4786 70.6971 23.5482 70.7435 23.5946 70.7667C23.7338 70.8827 23.873 70.9987 23.9658 71.1611C24.0818 71.3699 24.1514 71.6019 24.1746 71.8339C24.1746 71.9035 24.1746 71.9499 24.1746 72.0195C24.1746 72.0891 24.1514 72.1587 24.1282 72.2051C24.105 72.3211 24.0586 72.4139 24.0122 72.5067C23.989 72.5531 23.9426 72.5995 23.9194 72.6691L21.785 75.6387C21.5762 75.9403 21.2514 76.1259 20.9034 76.1955C20.5322 76.2651 20.1842 76.1723 19.8826 75.9635C19.233 75.5227 19.0938 74.6643 19.5346 74.0611ZM23.9426 80.534C23.641 80.3251 23.4554 80.0003 23.3858 79.6523C23.3162 79.2811 23.409 78.9331 23.6178 78.6315L28.3971 71.9963C28.6059 71.6947 28.9307 71.5091 29.2787 71.4395C29.3483 71.4395 29.4179 71.4163 29.4875 71.4163C29.5107 71.4163 29.5107 71.4163 29.5339 71.4163C29.6035 71.4163 29.6499 71.4163 29.7195 71.4395C29.7427 71.4395 29.7427 71.4395 29.7427 71.4395C29.7891 71.4395 29.8587 71.4627 29.9051 71.4859H29.9283C29.9979 71.5091 30.0443 71.5323 30.0907 71.5555C30.1139 71.5555 30.1139 71.5787 30.1371 71.5787C30.1835 71.6019 30.2531 71.6483 30.2995 71.6715C30.6939 71.9499 30.9027 72.4371 30.8563 72.9243C30.8563 72.9939 30.8331 73.0403 30.8331 73.1099C30.8331 73.1331 30.8099 73.1563 30.8099 73.1795C30.8099 73.2027 30.7867 73.2491 30.7867 73.2723C30.7867 73.2955 30.7635 73.3187 30.7635 73.3419C30.7403 73.3651 30.7403 73.4115 30.7171 73.4347C30.6939 73.4579 30.6707 73.4811 30.6707 73.5275C30.6475 73.5507 30.6475 73.5739 30.6243 73.5971L25.845 80.2323C25.6362 80.5339 25.3114 80.7195 24.9634 80.7891C24.5922 80.8355 24.221 80.7428 23.9426 80.534ZM28.7915 84.0372C28.1883 83.5964 28.0491 82.738 28.4899 82.1348L33.2691 75.4995C33.3155 75.4299 33.3619 75.3835 33.4315 75.3139C33.4547 75.2907 33.4547 75.2907 33.4779 75.2675C33.5243 75.2211 33.5939 75.1747 33.6635 75.1283C33.6867 75.1283 33.6867 75.1051 33.7099 75.1051C33.7795 75.0819 33.8259 75.0355 33.8955 75.0123C33.9187 75.0123 33.9187 75.0123 33.9187 74.9891C33.9883 74.9659 34.0579 74.9427 34.1507 74.9195C34.1739 74.9195 34.1971 74.9195 34.2203 74.8963C34.2435 74.8963 34.2435 74.8963 34.2667 74.8963C34.3131 74.8963 34.3595 74.8963 34.3827 74.8963H34.4059C34.4755 74.8963 34.5451 74.8963 34.6147 74.9195C34.6843 74.9195 34.7539 74.9427 34.8003 74.9659C34.8003 74.9659 34.8003 74.9659 34.8235 74.9659C34.8931 74.9891 34.9395 75.0123 35.0091 75.0355C35.0091 75.0355 35.0323 75.0355 35.0323 75.0587C35.0787 75.0819 35.1483 75.1283 35.1947 75.1515C35.4499 75.3371 35.6123 75.5923 35.7051 75.8707C35.7515 76.0331 35.7747 76.2187 35.7515 76.4043C35.7283 76.6363 35.6355 76.8683 35.4963 77.0771L30.7171 83.7124C30.2531 84.3388 29.4179 84.478 28.7915 84.0372ZM35.4267 86.7052C35.0555 86.7748 34.7075 86.682 34.4059 86.4732C34.1043 86.2644 33.9187 85.9396 33.8491 85.5916C33.7795 85.2204 33.8723 84.8724 34.0811 84.5708L36.2155 81.6012C36.2619 81.5548 36.2851 81.5084 36.3315 81.462C36.3547 81.4388 36.3779 81.4156 36.4011 81.3924C36.4475 81.346 36.4939 81.3228 36.5403 81.2764C36.5635 81.2532 36.5867 81.23 36.6099 81.23C36.6563 81.2068 36.7259 81.1836 36.7723 81.1604C36.7955 81.1371 36.8187 81.1372 36.8419 81.114C36.9347 81.0908 37.0043 81.0676 37.0971 81.0443C37.1667 81.0443 37.2363 81.0211 37.2827 81.0211C37.3059 81.0211 37.3059 81.0211 37.3291 81.0211C37.3987 81.0211 37.4451 81.0211 37.5147 81.0443C37.5379 81.0443 37.5379 81.0443 37.5611 81.0443C37.6075 81.0443 37.6539 81.0676 37.7235 81.0908H37.7467C37.7931 81.114 37.8627 81.1371 37.9091 81.1604C37.9323 81.1604 37.9324 81.1836 37.9555 81.1836C38.0019 81.2068 38.0715 81.2532 38.1179 81.2764C38.5123 81.5548 38.7212 82.042 38.6748 82.5292C38.6516 82.7612 38.5588 82.9932 38.4196 83.202L36.3315 86.1716C36.0995 86.45 35.7979 86.6588 35.4267 86.7052ZM66.9558 68.6322C66.9094 69.1426 66.7238 69.6298 66.4222 70.0475C66.167 70.3955 65.819 70.6043 65.4014 70.6739C64.9838 70.7435 64.5662 70.6507 64.2414 70.3955L62.4318 69.0962L58.8821 66.5442C58.1629 66.0106 57.1421 66.1962 56.6085 66.9154C56.0749 67.6346 56.2605 68.6554 56.9797 69.189L60.5294 71.7411C61.1558 72.1819 61.527 72.8547 61.643 73.5971C61.7358 74.3395 61.527 75.0819 61.0398 75.6851C60.1582 76.7755 58.4413 76.9379 57.2349 76.0795L56.8869 75.8243L56.8637 75.8011L52.4789 72.6459C51.7597 72.1123 50.7389 72.2979 50.2053 73.0171C49.6717 73.7363 49.8573 74.7571 50.5765 75.2907L54.9613 78.4459C55.7269 79.0027 56.1445 79.9539 56.0517 80.9283C56.0053 81.4156 55.8429 81.8564 55.5645 82.2276C55.1469 82.8076 54.5205 83.202 53.8013 83.318C53.0821 83.434 52.3629 83.2716 51.7829 82.8308L49.6485 81.2996C49.6485 81.2996 49.6253 81.2996 49.6253 81.2764L45.4724 78.2835C44.7532 77.7499 43.7324 77.9355 43.1988 78.6547C42.6652 79.3739 42.8508 80.3947 43.57 80.9283L47.7228 83.9212C48.0708 84.1764 48.3028 84.5708 48.3492 85.0116C48.3956 85.4524 48.2564 85.8932 47.978 86.2412C47.4908 86.798 46.6092 86.914 45.9132 86.4964L41.6676 84.0372C41.6908 83.9908 41.714 83.9212 41.714 83.8748C41.7372 83.8284 41.7372 83.782 41.7604 83.7588C41.7836 83.7124 41.7836 83.6428 41.8068 83.5964C41.8068 83.55 41.83 83.5268 41.83 83.4804C41.8532 83.4108 41.8532 83.3412 41.8764 83.2948C41.8764 83.2484 41.8996 83.2252 41.8996 83.1788C41.9228 83.086 41.9228 82.97 41.946 82.8772C42.1084 81.2299 41.3892 79.6291 40.0436 78.6547C39.9276 78.5619 39.8116 78.4923 39.6956 78.4227C39.6492 78.3995 39.626 78.3763 39.5796 78.3531C39.4868 78.3067 39.4172 78.2603 39.3244 78.2139C39.278 78.1907 39.2316 78.1675 39.1852 78.1443C39.1156 78.1211 39.0228 78.0747 38.93 78.0515C38.8836 78.0283 38.8372 78.0051 38.7676 78.0051C38.7444 78.0051 38.698 77.9819 38.6748 77.9819V77.9587C38.698 77.9123 38.7212 77.8427 38.7444 77.7731C38.7676 77.7267 38.7676 77.7035 38.7908 77.6571C38.814 77.5875 38.8372 77.5411 38.8372 77.4715C38.8372 77.4251 38.8604 77.4019 38.8604 77.3555C38.8836 77.2859 38.8836 77.2163 38.9068 77.1467C38.9068 77.1235 38.93 77.0771 38.93 77.0539C38.9532 76.9611 38.9532 76.8451 38.9764 76.7523C39.1388 75.2211 38.5124 73.7131 37.3291 72.7387C37.2595 72.6691 37.1667 72.5995 37.0971 72.5531C36.9811 72.4603 36.8419 72.3907 36.7259 72.3211C36.6795 72.2979 36.6563 72.2747 36.6099 72.2515C36.5171 72.2051 36.4243 72.1587 36.3315 72.1123C36.2851 72.0891 36.2387 72.0659 36.2155 72.0659C36.1227 72.0195 36.0299 71.9963 35.9139 71.9499C35.8675 71.9267 35.8443 71.9267 35.7979 71.9035C35.6819 71.8803 35.5891 71.8339 35.4731 71.8107C35.4499 71.8107 35.4035 71.7875 35.3803 71.7875C35.2643 71.7643 35.1483 71.7411 35.0323 71.7179C35.0091 71.7179 34.9859 71.7179 34.9627 71.7179C34.8467 71.6947 34.7075 71.6947 34.5915 71.6947C34.5683 71.6947 34.5451 71.6947 34.5451 71.6947C34.4059 71.6947 34.2667 71.6947 34.1507 71.6947H34.1275C34.1043 71.6947 34.0811 71.6947 34.0579 71.6947C34.0579 71.6715 34.0347 71.6483 34.0347 71.6251C34.0115 71.5323 33.9883 71.4395 33.9651 71.3467C33.9651 71.3003 33.9419 71.2771 33.9187 71.2307C33.8955 71.1379 33.8491 71.0451 33.8027 70.9523C33.8027 70.9291 33.7795 70.9059 33.7795 70.9059C33.7331 70.7899 33.6867 70.6971 33.6171 70.5811C33.5939 70.5579 33.5939 70.5347 33.5707 70.4883C33.5243 70.4187 33.4779 70.3259 33.4315 70.2563C33.4083 70.2331 33.3851 70.1866 33.3619 70.1635C33.2923 70.0707 33.2459 69.9778 33.1763 69.9082L33.1531 69.885C33.0835 69.7922 32.9907 69.6994 32.9211 69.6066C32.8979 69.5834 32.8747 69.5602 32.8515 69.537C32.7819 69.4674 32.7123 69.3978 32.6427 69.3514C32.6195 69.3282 32.5963 69.305 32.5499 69.2818C32.4571 69.2122 32.3643 69.1194 32.2483 69.0498C31.2507 68.3306 30.0211 68.029 28.8147 68.2378C28.6755 68.261 28.5363 68.2842 28.4203 68.3306C28.3971 68.3306 28.3507 68.3538 28.3275 68.3538C28.2115 68.377 28.0955 68.4234 27.9795 68.4698C27.9563 68.4698 27.9563 68.4698 27.9331 68.493C27.8171 68.5394 27.6779 68.5858 27.5619 68.6554C27.5387 68.6786 27.4923 68.6786 27.4691 68.7018C27.3763 68.7482 27.2603 68.8178 27.1674 68.8642C27.1442 68.8642 27.121 68.8874 27.121 68.8874C27.005 68.957 26.889 69.0266 26.7962 69.1194C26.773 69.1426 26.7498 69.1658 26.7266 69.189C26.6802 69.2122 26.657 69.2586 26.6106 69.2818C26.541 69.189 26.4714 69.0962 26.4018 69.0034C26.3786 68.9802 26.3554 68.957 26.3322 68.9338C26.2858 68.8642 26.2162 68.7946 26.1698 68.7482C26.1466 68.725 26.1234 68.7018 26.077 68.6554C26.0074 68.5858 25.961 68.5394 25.8914 68.493C25.8682 68.4698 25.845 68.4466 25.7986 68.4234C25.7058 68.3538 25.613 68.2842 25.5202 68.2146C24.5226 67.4954 23.293 67.1938 22.0866 67.4026C21.9474 67.4258 21.8082 67.449 21.6922 67.4954C21.669 67.4954 21.6226 67.5186 21.5994 67.5186C21.4602 67.565 21.3442 67.5882 21.205 67.6346H21.1818C21.089 67.6578 21.0194 67.7042 20.9266 67.7274C19.5578 64.3634 17.493 61.4402 14.8945 59.1898L25.9146 43.9008C28.0955 45.2 30.5315 46.1048 33.1299 46.5688L31.7379 60.2802C31.5291 62.345 33.0371 64.1778 35.0787 64.3866C37.0043 64.5722 38.8604 64.0154 40.3452 62.809C41.83 61.6026 42.758 59.8626 42.9668 57.9601L43.338 54.3641C45.2172 54.2945 47.05 53.7377 48.674 52.7865L65.8654 66.057C65.9814 66.1498 66.051 66.2194 66.0974 66.2658L66.1206 66.289C66.1438 66.3122 66.1902 66.3586 66.2134 66.3818L66.2598 66.4282C66.283 66.4514 66.283 66.4746 66.3062 66.4746L66.3526 66.521C66.3758 66.5442 66.399 66.5674 66.4222 66.5906L66.5614 66.7994C66.631 66.8922 66.6774 66.985 66.7006 67.0546L66.7238 67.101C66.747 67.1474 66.747 67.1706 66.7702 67.217C66.7934 67.2634 66.8166 67.3098 66.8166 67.3562C66.8398 67.4026 66.8398 67.449 66.863 67.4954L66.9094 67.6346C66.9326 67.7506 66.9558 67.8666 66.979 67.9594V68.0058C66.979 68.0522 66.979 68.0986 67.0022 68.145V68.1682V68.2842C66.979 68.377 66.979 68.5162 66.9558 68.6322ZM69.067 64.7114L69.0438 64.665C69.0206 64.6418 69.0206 64.6418 68.9974 64.6186C68.951 64.549 68.9046 64.5026 68.8582 64.4562C68.8582 64.4562 68.8582 64.4562 68.835 64.433C68.8118 64.4098 68.7886 64.3866 68.7654 64.3402C68.7422 64.317 68.7422 64.317 68.719 64.2938C68.6958 64.2474 68.6494 64.2242 68.6262 64.1778L68.603 64.1546C68.5566 64.1082 68.5334 64.085 68.487 64.0386C68.4406 63.9922 68.4174 63.9458 68.371 63.9226C68.2086 63.7602 68.0462 63.621 67.8142 63.4354L48.6972 48.68L47.6996 49.4225C46.0524 50.6521 44.034 51.2321 41.9692 51.0233L40.3452 50.8609L39.6724 57.5657C39.5564 58.6097 39.046 59.561 38.2339 60.2338C37.4219 60.9066 36.3779 61.2082 35.3339 61.0922C35.0555 61.069 34.8699 60.8138 34.8931 60.5586L36.0531 49.1673L44.3588 45.084L46.6556 43.9472L46.7948 43.8776C47.398 43.5064 47.978 43.2048 48.558 42.9496C49.8109 42.3928 51.1333 41.9752 52.4557 41.7664C54.1261 41.488 55.8429 41.488 57.5365 41.7664C61.295 42.3928 65.0302 42.0912 68.4174 40.9544L76.1431 58.1457C73.4287 59.7234 70.9927 61.9506 69.067 64.7114Z" fill="#C94D00"/>
<path d="M81.8267 56.5215C81.9195 56.5215 81.9891 56.5447 82.0819 56.5447C82.6387 56.5447 83.1723 56.3591 83.5899 56.0111C84.0771 55.5935 84.4019 55.0367 84.4715 54.3871C84.6107 53.0647 83.6363 51.8814 82.3139 51.7422C80.9915 51.603 79.8082 52.5775 79.669 53.8999C79.553 55.2223 80.5275 56.4055 81.8267 56.5215ZM81.2931 54.0623C81.3395 53.6679 81.6643 53.3663 82.0587 53.3663C82.0819 53.3663 82.1051 53.3663 82.1283 53.3663C82.3371 53.3895 82.5227 53.4823 82.6619 53.6447C82.8011 53.8071 82.8475 54.0159 82.8243 54.2247C82.8011 54.4335 82.7083 54.6191 82.5459 54.7583C82.3835 54.8975 82.1747 54.9439 81.9659 54.9207C81.5715 54.8743 81.2699 54.4799 81.2931 54.0623Z" fill="#C94D00"/>
<path d="M12.0413 53.9696C12.1806 52.6472 11.2061 51.464 9.88373 51.3248C8.56132 51.1856 7.37811 52.16 7.23891 53.4824C7.1693 54.132 7.35491 54.7584 7.77251 55.2456C8.19011 55.7328 8.74692 56.0576 9.39653 56.1272C9.48933 56.1272 9.55893 56.1504 9.65173 56.1504C10.8813 56.1272 11.9253 55.2224 12.0413 53.9696ZM9.04852 54.2248C8.90932 54.0624 8.86292 53.8536 8.88612 53.6448C8.93252 53.2504 9.25732 52.9488 9.65173 52.9488C9.67493 52.9488 9.69813 52.9488 9.72133 52.9488C10.1389 52.9952 10.4637 53.3664 10.4173 53.8072C10.3709 54.2248 9.99973 54.5496 9.55893 54.5032C9.37332 54.48 9.18772 54.3872 9.04852 54.2248Z" fill="#C94D00"/>
</g>
<defs>
<clipPath id="clip0_6675_13352">
<rect width="90" height="90" fill="white"/>
</clipPath>
</defs>
</svg>
