<svg width="90" height="90" viewBox="0 0 90 90" fill="none" xmlns="http://www.w3.org/2000/svg">
<path d="M11.8943 70.2336C11.4611 70.2336 11.028 70.0311 10.7552 69.6514C-1.40604 52.8017 0.450208 29.8883 15.168 15.1677C31.6211 -1.27984 58.3821 -1.27984 74.8352 15.1677C75.3836 15.7161 75.3836 16.6077 74.8352 17.1561C74.2868 17.7045 73.3952 17.7045 72.8468 17.1561C57.4905 1.80828 32.5099 1.80828 17.1565 17.1561C3.42021 30.898 1.68771 52.2814 13.0333 68.0033C13.489 68.6361 13.3455 69.5136 12.7183 69.9664C12.468 70.1464 12.1783 70.2336 11.8943 70.2336Z" fill="#C94D00"/>
<path d="M45.0004 87.1676C34.1947 87.1676 23.3919 83.0557 15.1682 74.8319C14.6197 74.2835 14.6197 73.3919 15.1682 72.8435C15.7166 72.2951 16.6082 72.2951 17.1566 72.8435C32.51 88.1913 57.4935 88.1913 72.8469 72.8435C86.5522 59.1298 88.3044 37.7688 77.0094 22.0526C76.5566 21.4198 76.7029 20.5423 77.33 20.0895C77.9629 19.6366 78.8404 19.7801 79.2932 20.4101C91.3954 37.2485 89.5194 60.1366 74.8325 74.8319C66.6088 83.0557 55.806 87.1648 45.0004 87.1676Z" fill="#C94D00"/>
<path d="M16.1606 82.1644C15.3844 82.1644 14.7544 81.5344 14.7544 80.7581V73.8394C14.7544 73.0631 15.3844 72.4331 16.1606 72.4331H23.0822C23.8585 72.4331 24.4885 73.0631 24.4885 73.8394C24.4885 74.6156 23.8585 75.2456 23.0822 75.2456H17.5669V80.7581C17.5669 81.5344 16.9369 82.1644 16.1606 82.1644Z" fill="#C94D00"/>
<path d="M73.8395 17.5667H66.918C66.1417 17.5667 65.5117 16.9367 65.5117 16.1604C65.5117 15.3842 66.1417 14.7542 66.918 14.7542H72.4333V9.2417C72.4333 8.46545 73.0633 7.83545 73.8395 7.83545C74.6158 7.83545 75.2458 8.46545 75.2458 9.2417V16.1604C75.2458 16.9367 74.6158 17.5667 73.8395 17.5667Z" fill="#C94D00"/>
<path d="M45 75.9375C27.9422 75.9375 14.0625 62.0578 14.0625 45C14.0625 27.9422 27.9422 14.0625 45 14.0625C62.0578 14.0625 75.9375 27.9422 75.9375 45C75.9375 62.0578 62.0578 75.9375 45 75.9375ZM45 16.875C29.4919 16.875 16.875 29.4919 16.875 45C16.875 60.5081 29.4919 73.125 45 73.125C60.5081 73.125 73.125 60.5081 73.125 45C73.125 29.4919 60.5081 16.875 45 16.875Z" fill="#C94D00"/>
<path d="M45 75.9375C27.9422 75.9375 14.0625 62.0578 14.0625 45C14.0625 27.9422 27.9422 14.0625 45 14.0625C62.0578 14.0625 75.9375 27.9422 75.9375 45C75.9375 62.0578 62.0578 75.9375 45 75.9375ZM45 16.875C29.4919 16.875 16.875 29.4919 16.875 45C16.875 60.5081 29.4919 73.125 45 73.125C60.5081 73.125 73.125 60.5081 73.125 45C73.125 29.4919 60.5081 16.875 45 16.875Z" fill="#C94D00"/>
<path d="M66.5043 66.6001C66.3721 66.6001 66.2399 66.5804 66.1077 66.541C52.3799 62.5079 37.6143 62.5079 23.8864 66.541C23.1439 66.7576 22.3593 66.3385 22.1427 65.5876C21.9233 64.8423 22.348 64.0632 23.0961 63.8438C37.3358 59.6588 52.6611 59.6588 66.898 63.8438C67.6461 64.0632 68.0708 64.8423 67.8514 65.5876C67.6771 66.2035 67.1146 66.6001 66.5043 66.6001Z" fill="#C94D00"/>
<path d="M45.0002 29.3121C39.8758 29.3121 34.7374 28.8002 29.7199 27.7933C28.9577 27.6386 28.4655 26.8989 28.6174 26.1367C28.772 25.3746 29.5286 24.8852 30.2739 25.0342C42.0949 27.4136 54.498 26.868 66.108 23.4564C66.8477 23.2342 67.6352 23.6589 67.8517 24.4099C68.0711 25.1552 67.6464 25.9342 66.8983 26.1536C59.7827 28.2489 52.4139 29.3121 45.0002 29.3121Z" fill="#C94D00"/>
<path d="M46.4174 75.8671C45.9702 75.8671 45.5286 75.6533 45.2558 75.2539C44.8199 74.6099 44.983 73.738 45.6243 73.2992C55.0574 66.8614 60.688 56.2836 60.688 44.9999C60.688 33.7161 55.0574 23.1411 45.6243 16.7005C44.983 16.2617 44.8199 15.3871 45.2558 14.7458C45.6946 14.1046 46.5693 13.9471 47.2105 14.3774C57.4114 21.3411 63.5005 32.788 63.5005 44.9999C63.5005 57.2117 57.4114 68.6586 47.2105 75.6224C46.9658 75.7855 46.693 75.8671 46.4174 75.8671Z" fill="#C94D00"/>
<path d="M43.5826 75.8674C43.307 75.8674 43.0342 75.7886 42.7895 75.6227C32.5886 68.6589 26.4995 57.212 26.4995 45.0002C26.4995 36.1886 29.6748 27.6499 35.4376 20.9533C35.9467 20.3627 36.8355 20.3036 37.4205 20.8042C38.0083 21.3105 38.0758 22.1992 37.5695 22.787C32.2454 28.9717 29.312 36.8608 29.312 44.9973C29.312 56.2811 34.9426 66.8561 44.3758 73.2967C45.017 73.7355 45.1801 74.6102 44.7442 75.2514C44.4742 75.6508 44.0298 75.8674 43.5826 75.8674Z" fill="#C94D00"/>
<path d="M45 74.3821C44.2237 74.3821 43.5938 73.7521 43.5938 72.9758V17.0239C43.5938 16.2477 44.2237 15.6177 45 15.6177C45.7762 15.6177 46.4062 16.2477 46.4062 17.0239V72.9786C46.4062 73.7549 45.7762 74.3821 45 74.3821Z" fill="#C94D00"/>
<path d="M72.9758 46.4062H21.2427C20.4664 46.4062 19.8364 45.7762 19.8364 45C19.8364 44.2237 20.4664 43.5938 21.2427 43.5938H72.9786C73.7549 43.5938 74.3849 44.2237 74.3849 45C74.3849 45.7762 73.7549 46.4062 72.9758 46.4062Z" fill="#C94D00"/>
</svg>
