<svg width="90" height="90" viewBox="0 0 90 90" fill="none" xmlns="http://www.w3.org/2000/svg">
<path d="M84.0814 7.51562H20.95C17.6864 7.51562 15.0314 10.1708 15.0314 13.4342V31.5657H5.91855C2.655 31.5657 0 34.2208 0 37.4842V76.5657C0 79.8292 2.65518 82.4842 5.91855 82.4842H69.05C72.3136 82.4842 74.9686 79.829 74.9686 76.5657V58.4342H84.0813C87.3448 58.4342 89.9998 55.779 89.9998 52.5156V13.4342C90 10.1706 87.3448 7.51562 84.0814 7.51562ZM72.1503 76.5657C72.1503 78.2751 70.7595 79.6659 69.05 79.6659H5.91855C4.20908 79.6659 2.8183 78.2751 2.8183 76.5657V37.4842C2.8183 35.7747 4.20908 34.384 5.91855 34.384H69.05C70.7595 34.384 72.1503 35.7747 72.1503 37.4842V76.5657ZM87.1817 52.5156C87.1817 54.2251 85.7909 55.6159 84.0814 55.6159H74.9688V37.4842C74.9688 34.2207 72.3136 31.5657 69.0502 31.5657H17.8497V25.3653H87.1817V52.5156ZM87.1817 22.5469H17.8497V16.3465H87.1817V22.5469ZM87.1817 13.528H17.8497V13.4342C17.8497 11.7247 19.2405 10.3339 20.95 10.3339H84.0814C85.7909 10.3339 87.1817 11.7247 87.1817 13.4342V13.528Z" fill="#C94D00"/>
<path d="M19.4469 58.6221H10.4283C9.6501 58.6221 9.01904 59.2529 9.01904 60.0313C9.01904 60.8097 9.64992 61.4405 10.4283 61.4405H19.4471C20.2253 61.4405 20.8563 60.8097 20.8563 60.0313C20.8563 59.2529 20.2253 58.6221 19.4469 58.6221Z" fill="#C94D00"/>
<path d="M40.4906 64.6348H37.4844C36.7062 64.6348 36.0752 65.2656 36.0752 66.044C36.0752 66.8222 36.7061 67.4532 37.4844 67.4532H40.4906C41.2688 67.4532 41.8999 66.8224 41.8999 66.044C41.8997 65.2658 41.2688 64.6348 40.4906 64.6348Z" fill="#C94D00"/>
<path d="M49.5092 64.6348H46.503C45.7248 64.6348 45.0938 65.2656 45.0938 66.044C45.0938 66.8222 45.7246 67.4532 46.503 67.4532H49.5092C50.2874 67.4532 50.9184 66.8224 50.9184 66.044C50.9184 65.2658 50.2876 64.6348 49.5092 64.6348Z" fill="#C94D00"/>
<path d="M34.4779 58.6221H25.459C24.6809 58.6221 24.0498 59.2529 24.0498 60.0313C24.0498 60.8097 24.6807 61.4405 25.459 61.4405H34.4779C35.256 61.4405 35.8871 60.8097 35.8871 60.0313C35.8871 59.2529 35.256 58.6221 34.4779 58.6221Z" fill="#C94D00"/>
<path d="M49.5091 58.6221H40.4903C39.7121 58.6221 39.0811 59.2529 39.0811 60.0313C39.0811 60.8097 39.7119 61.4405 40.4903 61.4405H49.5091C50.2873 61.4405 50.9183 60.8097 50.9183 60.0313C50.9183 59.2529 50.2875 58.6221 49.5091 58.6221Z" fill="#C94D00"/>
<path d="M20.9502 70.647H10.4283C9.6501 70.647 9.01904 71.2779 9.01904 72.0562C9.01904 72.8344 9.64992 73.4654 10.4283 73.4654H20.9502C21.7284 73.4654 22.3594 72.8346 22.3594 72.0562C22.3593 71.2779 21.7284 70.647 20.9502 70.647Z" fill="#C94D00"/>
<path d="M34.4782 70.647H26.9625C26.1843 70.647 25.5532 71.2779 25.5532 72.0562C25.5532 72.8344 26.1841 73.4654 26.9625 73.4654H34.4782C35.2563 73.4654 35.8874 72.8346 35.8874 72.0562C35.8874 71.2779 35.2563 70.647 34.4782 70.647Z" fill="#C94D00"/>
<path d="M64.5408 58.6221H55.522C54.7438 58.6221 54.1128 59.2529 54.1128 60.0313C54.1128 60.8097 54.7437 61.4405 55.522 61.4405H64.5408C65.319 61.4405 65.9501 60.8097 65.9501 60.0313C65.9501 59.2529 65.319 58.6221 64.5408 58.6221Z" fill="#C94D00"/>
<path d="M19.4469 43.5908H13.4345C10.9997 43.5908 9.01904 45.5715 9.01904 48.0063V51.0125C9.01904 53.4472 10.9997 55.4279 13.4345 55.4279H19.4471C21.8818 55.4279 23.8625 53.4472 23.8625 51.0125V48.0063C23.8624 45.5717 21.8817 43.5908 19.4469 43.5908ZM21.0441 51.0127C21.0441 51.8933 20.3276 52.6098 19.4469 52.6098H13.4345C12.5538 52.6098 11.8373 51.8933 11.8373 51.0127V48.0064C11.8373 47.1258 12.5538 46.4093 13.4345 46.4093H19.4471C20.3278 46.4093 21.0442 47.1258 21.0442 48.0064L21.0441 51.0127Z" fill="#C94D00"/>
<path d="M60.0311 39.0815C58.6604 39.0815 57.3765 39.4567 56.2733 40.1071C55.1702 39.4565 53.8862 39.0815 52.5154 39.0815C48.423 39.0815 45.0938 42.411 45.0938 46.5032C45.0938 50.5954 48.4232 53.9249 52.5154 53.9249C53.8862 53.9249 55.1701 53.5497 56.2733 52.8994C57.3765 53.5499 58.6604 53.9249 60.0311 53.9249C64.1235 53.9249 67.4528 50.5954 67.4528 46.5032C67.4528 42.411 64.1235 39.0815 60.0311 39.0815ZM54.0224 50.852C53.5499 51.0162 53.0431 51.1066 52.5154 51.1066C49.9771 51.1066 47.912 49.0415 47.912 46.5032C47.912 43.9649 49.9771 41.8998 52.5154 41.8998C53.0433 41.8998 53.5499 41.9902 54.0224 42.1544C53.1349 43.3773 52.6095 44.8795 52.6095 46.5032C52.6095 48.1269 53.1349 49.6288 54.0224 50.852ZM56.2734 49.1571C55.7417 48.4064 55.4279 47.4911 55.4279 46.5032C55.4279 45.5153 55.7417 44.6 56.2734 43.8493C56.8052 44.6 57.1189 45.5153 57.1189 46.5032C57.1189 47.4911 56.8052 48.4064 56.2734 49.1571ZM60.0311 51.1066C59.5032 51.1066 58.9966 51.0162 58.5241 50.852C59.4117 49.6291 59.9371 48.1269 59.9371 46.5032C59.9371 44.8795 59.4117 43.3776 58.5241 42.1544C58.9966 41.9902 59.5034 41.8998 60.0311 41.8998C62.5694 41.8998 64.6345 43.9649 64.6345 46.5032C64.6345 49.0415 62.5694 51.1066 60.0311 51.1066Z" fill="#C94D00"/>
</svg>
