<svg width="86" height="86" viewBox="0 0 86 86" fill="none" xmlns="http://www.w3.org/2000/svg">
<g clip-path="url(#clip0_6643_18574)">
<path d="M73.9005 74.5108C73.9005 71.4046 71.3734 68.8773 68.2668 68.8773H54.1927C53.4347 68.8773 52.8204 69.4918 52.8204 70.2497C52.8204 71.0075 53.4347 71.622 54.1927 71.622H68.2668C69.8598 71.622 71.1559 72.918 71.1559 74.511C71.1559 74.8322 71.1003 75.1454 70.9994 75.4422C70.1894 74.9911 69.258 74.7331 68.267 74.7331H49.045C50.3367 72.5701 50.0528 69.7212 48.1921 67.8606L32.0592 51.7277C29.7304 49.3988 25.3265 47.5747 22.0333 47.5747H2.27611C1.51824 47.5747 0.903809 48.1891 0.903809 48.947C0.903809 49.7049 1.51824 50.3193 2.27611 50.3193H22.0331C24.6003 50.3193 28.3029 51.8529 30.1184 53.6683L46.2512 69.8012C47.3776 70.9276 47.3776 72.7603 46.2512 73.8867C45.1251 75.0131 43.2921 75.0131 42.1657 73.8867L29.0542 60.7752C28.5182 60.2392 27.6493 60.2392 27.1135 60.7752C26.5775 61.3112 26.5775 62.1801 27.1135 62.7159L40.225 75.8274C41.2978 76.9002 42.699 77.4474 44.1079 77.4723C44.1411 77.4747 44.1746 77.4775 44.2083 77.4775H68.2667C69.8597 77.4775 71.1557 78.7736 71.1557 80.3664C71.1557 81.9594 69.8597 83.2555 68.268 83.2555L41.4028 83.2316C40.6734 83.2311 39.4357 82.9084 38.7863 82.5519L11.4783 65.6883C11.4623 65.6784 11.4462 65.669 11.4297 65.6597C10.3725 65.0653 8.66077 64.6172 7.4477 64.6172H2.27611C1.51824 64.6172 0.903809 65.2316 0.903809 65.9895C0.903809 66.7473 1.51824 67.3618 2.27611 67.3618H7.4477C8.17686 67.3618 9.41378 67.6834 10.0628 68.04L37.3708 84.9036C37.3868 84.9135 37.4031 84.9229 37.4194 84.9323C38.4762 85.5264 40.1877 85.9752 41.4002 85.9764L68.2668 86.0001C71.3734 86.0001 73.9005 83.4728 73.9005 80.3664C73.9005 79.2954 73.5998 78.2935 73.079 77.4399C73.6131 76.5644 73.9005 75.5568 73.9005 74.5108Z" fill="#C94D00"/>
<path d="M59.7339 0C45.7489 0 34.3716 11.3777 34.3716 25.3624C34.3716 34.2917 39.107 42.596 46.7652 47.1614L49.2126 54.0191V59.271C49.2126 62.4338 51.5944 65.4831 51.6957 65.6113C51.9561 65.9405 52.3526 66.1327 52.7724 66.1327H66.6957C67.1154 66.1327 67.512 65.9405 67.7723 65.6113C67.8738 65.483 70.2554 62.4337 70.2554 59.271V54.0189L72.7031 47.1613C80.3614 42.5959 85.0966 34.2915 85.0966 25.3623C85.0965 11.3775 73.7189 0 59.7339 0ZM65.9892 63.3879H53.4764C53.0425 62.7315 52.4731 61.7095 52.1697 60.6433H67.2962C66.9913 61.7063 66.422 62.7301 65.9892 63.3879ZM67.5105 57.8985H51.9572V55.1539H67.5105V57.8985ZM70.9003 45.0353C70.6145 45.1977 70.3969 45.4574 70.2865 45.7668L67.9156 52.4093H51.5523L49.1816 45.7668C49.071 45.4574 48.8533 45.1977 48.5678 45.0353C41.504 41.0168 37.1162 33.4787 37.1162 25.3624C37.1162 12.8911 47.2623 2.74461 59.7339 2.74461C72.2054 2.74461 82.3517 12.8911 82.3517 25.3624C82.3519 33.4787 77.9638 41.0168 70.9003 45.0353Z" fill="#C94D00"/>
<path d="M68.7932 27.0676C66.1656 25.0918 63.0332 24.0474 59.7343 24.0474C56.4413 24.0474 53.31 25.0931 50.6784 27.0716C50.1984 27.4328 50.0089 28.0642 50.2108 28.6301L54.7021 41.2102V48.2921C54.7021 49.05 55.3164 49.6644 56.0744 49.6644C56.8325 49.6644 57.4467 49.05 57.4467 48.2921V42.3454H62.0212V48.2921C62.0212 49.05 62.6354 49.6644 63.3935 49.6644C64.1515 49.6644 64.7658 49.05 64.7658 48.2921V41.2114L69.2605 28.626C69.4627 28.0603 69.2734 27.4286 68.7932 27.0676ZM62.0214 39.6006H57.4469V39.1432C57.4469 37.8819 58.473 36.856 59.7343 36.856C60.9954 36.856 62.0214 37.8819 62.0214 39.1432V39.6006ZM63.6962 36.0465C62.7744 34.8696 61.3418 34.1112 59.7343 34.1112C58.1272 34.1112 56.6947 34.8694 55.7727 36.0459L53.1492 28.6974C55.119 27.4479 57.376 26.792 59.7343 26.792C62.0971 26.792 64.3551 27.4465 66.3222 28.6934L63.6962 36.0465Z" fill="#C94D00"/>
</g>
<defs>
<clipPath id="clip0_6643_18574">
<rect width="86" height="86" fill="white"/>
</clipPath>
</defs>
</svg>
