<svg width="90" height="90" viewBox="0 0 90 90" fill="none" xmlns="http://www.w3.org/2000/svg">
<path d="M39.2762 19.8401L50.7243 22.1297V23.8649H53.3662V19.9641L36.6343 16.6177V23.8649H39.2762V19.8401Z" fill="#C94D00"/>
<path d="M72.9241 73.2682L68.7234 42.463L53.3659 39.6707V35.5112C55.0641 33.6032 56.0453 31.2123 56.1702 28.6529L59.002 25.8211V15.411C59.002 11.575 55.881 8.4541 52.045 8.4541H37.955C34.119 8.4541 30.998 11.575 30.998 15.411V25.8223L33.8578 28.6738C34.0709 31.2246 35.0852 33.5433 36.6341 35.3574V39.6705L21.2766 42.4628L17.0759 73.2682H0V81.5461H90V73.2682H72.9241ZM26.771 73.2682H20.7373L26.771 69.8204V73.2682ZM39.2759 37.6349C40.8616 38.6219 42.6984 39.2121 44.6569 39.2709C44.773 39.2744 44.8885 39.2762 45.0041 39.2762C47.0496 39.2762 49.0097 38.73 50.7242 37.7039V40.0253L45.0002 43.4597L39.2761 40.0253V37.6349H39.2759ZM45 47.2017L47.6419 50.7242H42.3581L45 47.2017ZM50.8731 50.7242L57.2571 43.0634L61.7002 43.8713L58.2737 50.7242H50.8731ZM31.7263 50.7242L28.2998 43.8711L32.7429 43.0632L39.1269 50.7242H31.7263ZM29.4129 53.366H60.5871V73.2682H29.4129V53.366ZM63.229 69.8204L69.2627 73.2682H63.229V69.8204ZM69.8918 70.5849L63.229 66.7775V50.7242H61.2273L64.4076 44.3634L66.3647 44.7193L69.8918 70.5849ZM54.2707 42.5204L49.2816 48.5073L46.9356 45.3793L52.2981 42.1617L54.2707 42.5204ZM36.4447 27.5225L33.6399 24.7258V15.411C33.6399 13.0318 35.5757 11.096 37.955 11.096H52.045C54.4243 11.096 56.3601 13.0318 56.3601 15.411V24.727L53.5421 27.545V28.0921C53.5421 30.4222 52.6209 32.5995 50.9481 34.2228C49.2761 35.8453 47.0684 36.6991 44.736 36.6303C40.2825 36.4966 36.6494 32.7233 36.465 28.0403L36.4447 27.5225ZM37.7019 42.1617L43.0644 45.3793L40.7184 48.5073L35.7293 42.5204L37.7019 42.1617ZM23.6353 44.7193L25.5924 44.3634L28.7727 50.7242H26.771V66.7775L20.1082 70.5848L23.6353 44.7193ZM87.3581 78.9042H2.64188V75.9101H16.7157H26.771H28.092H61.908H63.229H73.2843H87.3581V78.9042Z" fill="#C94D00"/>
<path d="M50.6358 61.9961H39.3638V64.638H50.6358V61.9961Z" fill="#C94D00"/>
</svg>
