<svg width="90" height="90" viewBox="0 0 90 90" fill="none" xmlns="http://www.w3.org/2000/svg">
<g clip-path="url(#clip0_6772_13380)">
<path d="M69.8814 3.11015H51.2205C51.2032 3.11015 51.1863 3.1121 51.1692 3.11268C49.769 1.22559 47.5253 0 45.0002 0C42.4752 0 40.2314 1.22559 38.8312 3.11268C38.8141 3.1121 38.7972 3.11015 38.7799 3.11015H20.119C15.0279 3.11015 10.8857 7.25229 10.8857 12.3434V80.7667C10.8857 85.8579 15.0279 90 20.119 90H69.8814C74.9725 90 79.1147 85.8579 79.1147 80.7667V12.3434C79.1147 7.25229 74.9725 3.11015 69.8814 3.11015ZM45.0002 2.91577C47.6263 2.91577 49.7626 5.05225 49.7626 7.67819V9.23326C49.7626 10.0384 50.4152 10.6911 51.2205 10.6911H57.4408C58.3519 10.6911 59.0931 11.4323 59.0931 12.3434C59.0931 13.2545 58.3519 13.9957 57.4408 13.9957H32.5596C31.6485 13.9957 30.9073 13.2545 30.9073 12.3434C30.9073 11.4323 31.6485 10.6911 32.5596 10.6911H38.7799C39.5852 10.6911 40.2378 10.0384 40.2378 9.23326V7.67819C40.2378 5.05225 42.3741 2.91577 45.0002 2.91577ZM32.5596 16.9114H57.4408C59.9597 16.9114 62.0089 14.8622 62.0089 12.3434C62.0089 12.3108 62.0071 12.2787 62.0063 12.2462H69.8814C69.9349 12.2462 69.9786 12.2898 69.9786 12.3434V80.7667C69.9786 80.8204 69.9349 80.8639 69.8814 80.8639H20.119C20.0655 80.8639 20.0218 80.8204 20.0218 80.7667V12.3434C20.0218 12.2898 20.0655 12.2462 20.119 12.2462H27.9941C27.9933 12.2787 27.9916 12.3108 27.9916 12.3434C27.9916 14.8622 30.0408 16.9114 32.5596 16.9114ZM76.1989 80.7667C76.1989 84.2501 73.365 87.0842 69.8814 87.0842H20.119C16.6354 87.0842 13.8015 84.2501 13.8015 80.7667V12.3434C13.8015 8.86004 16.6354 6.02592 20.119 6.02592H37.503C37.3856 6.55853 37.322 7.11097 37.322 7.67819V7.77538H32.5596C31.1944 7.77538 29.9681 8.37816 29.1305 9.33045H20.119C18.4576 9.33045 17.106 10.682 17.106 12.3434V80.7667C17.106 82.4281 18.4576 83.7797 20.119 83.7797H69.8814C71.5428 83.7797 72.8944 82.4281 72.8944 80.7667V12.3434C72.8944 10.682 71.5428 9.33045 69.8814 9.33045H60.87C60.0322 8.37816 58.8058 7.77538 57.4408 7.77538H52.6784V7.67819C52.6784 7.11097 52.6146 6.55853 52.4974 6.02592H69.8814C73.365 6.02592 76.1989 8.86004 76.1989 12.3434V80.7667Z" fill="#C94D00"/>
<path d="M45.0004 12.2461C45.8057 12.2461 46.4582 11.5934 46.4582 10.7882V7.6781C46.4582 6.87296 45.8057 6.22021 45.0004 6.22021C44.195 6.22021 43.5425 6.87296 43.5425 7.6781V10.7882C43.5425 11.5934 44.195 12.2461 45.0004 12.2461Z" fill="#C94D00"/>
<path d="M43.4452 34.0173H62.1061C62.9114 34.0173 63.564 33.3646 63.564 32.5594C63.564 31.7543 62.9114 31.1016 62.1061 31.1016H43.4452C42.6399 31.1016 41.9873 31.7543 41.9873 32.5594C41.9873 33.3646 42.6399 34.0173 43.4452 34.0173Z" fill="#C94D00"/>
<path d="M26.8635 31.5284C26.2942 32.0977 26.2942 33.0209 26.8635 33.59L29.9737 36.7002C30.2585 36.9847 30.6317 37.1272 31.0047 37.1272C31.3777 37.1272 31.7509 36.9849 32.0357 36.7002L38.256 30.4799C38.8254 29.9105 38.8254 28.9874 38.256 28.4182C37.6865 27.8489 36.7635 27.8489 36.1942 28.4182L31.0047 33.6077L28.9256 31.5284C28.356 30.959 27.4331 30.959 26.8635 31.5284Z" fill="#C94D00"/>
<path d="M43.4452 49.5681H62.1061C62.9114 49.5681 63.564 48.9154 63.564 48.1102C63.564 47.3051 62.9114 46.6523 62.1061 46.6523H43.4452C42.6399 46.6523 41.9873 47.3051 41.9873 48.1102C41.9873 48.9154 42.6399 49.5681 43.4452 49.5681Z" fill="#C94D00"/>
<path d="M36.1938 43.969L31.0045 49.1585L28.9254 47.0792C28.3558 46.5098 27.4329 46.5098 26.8635 47.0792C26.2942 47.6485 26.2942 48.5716 26.8635 49.1408L29.9737 52.251C30.2585 52.5355 30.6317 52.678 31.0047 52.678C31.3777 52.678 31.7509 52.5357 32.0357 52.251L38.256 46.0306C38.8254 45.4613 38.8254 44.5382 38.256 43.969C37.6863 43.3997 36.7633 43.3997 36.1938 43.969Z" fill="#C94D00"/>
<path d="M43.4452 65.1189H62.1061C62.9114 65.1189 63.564 64.4661 63.564 63.661C63.564 62.8559 62.9114 62.2031 62.1061 62.2031H43.4452C42.6399 62.2031 41.9873 62.8559 41.9873 63.661C41.9873 64.4661 42.6399 65.1189 43.4452 65.1189Z" fill="#C94D00"/>
<path d="M36.1938 59.5198L31.0045 64.7093L28.9254 62.6299C28.3558 62.0606 27.4329 62.0606 26.8635 62.6299C26.2942 63.1993 26.2942 64.1224 26.8635 64.6916L29.9737 67.8017C30.2585 68.0863 30.6317 68.2288 31.0047 68.2288C31.3777 68.2288 31.7509 68.0865 32.0357 67.8017L38.256 61.5814C38.8254 61.0121 38.8254 60.0889 38.256 59.5198C37.6863 58.9504 36.7633 58.9504 36.1938 59.5198Z" fill="#C94D00"/>
</g>
<defs>
<clipPath id="clip0_6772_13380">
<rect width="90" height="90" fill="white"/>
</clipPath>
</defs>
</svg>
