<svg width="90" height="90" viewBox="0 0 90 90" fill="none" xmlns="http://www.w3.org/2000/svg">
<path d="M82.5783 7.51562H7.42166C3.32947 7.51562 0 10.8451 0 14.9373V69.05C0 72.6605 2.5919 75.6753 6.0126 76.3357V79.5719C6.0126 81.1778 7.319 82.4842 8.92494 82.4842H14.9375C16.5435 82.4842 17.8499 81.1778 17.8499 79.5719V76.4718H72.1505V79.5721C72.1505 81.178 73.4569 82.4844 75.0628 82.4844H81.0754C82.6814 82.4844 83.9878 81.178 83.9878 79.5721V76.3359C87.4081 75.6755 90 72.6605 90 69.05V14.9373C90 10.8451 86.6705 7.51562 82.5783 7.51562ZM15.0312 79.5719C15.0312 79.6236 14.9892 79.6657 14.9374 79.6657H8.92477C8.87291 79.6657 8.8309 79.6234 8.8309 79.5719V76.4718H15.0312V79.5719ZM81.1691 79.5719C81.1691 79.6236 81.1271 79.6657 81.0752 79.6657H75.0626C75.0108 79.6657 74.9688 79.6234 74.9688 79.5719V76.4718H81.1691V79.5719ZM87.1817 69.05C87.1817 71.5882 85.1166 73.6533 82.5783 73.6533H7.42166C4.88338 73.6533 2.8183 71.5882 2.8183 69.05V14.9373C2.8183 12.399 4.88338 10.3339 7.42166 10.3339H82.5782C85.1164 10.3339 87.1815 12.399 87.1815 14.9373V69.05H87.1817Z" fill="#C94D00"/>
<path d="M79.5721 16.5347H10.4281C9.64996 16.5347 9.01891 17.1655 9.01891 17.9439V22.5473H8.92504C7.3191 22.5473 6.0127 23.8537 6.0127 25.4596V31.4722C6.0127 33.0781 7.3191 34.3845 8.92504 34.3845H9.01891V49.6037H8.92504C7.3191 49.6037 6.0127 50.9101 6.0127 52.516V58.5286C6.0127 60.1346 7.3191 61.441 8.92504 61.441H9.01891V66.0443C9.01891 66.8225 9.64979 67.4536 10.4281 67.4536H79.5722C80.3504 67.4536 80.9815 66.8227 80.9815 66.0443V17.9437C80.9813 17.1655 80.3504 16.5347 79.5721 16.5347ZM8.92486 31.5659C8.87301 31.5659 8.831 31.5237 8.831 31.472V25.4594C8.831 25.4078 8.87301 25.3656 8.92486 25.3656H10.4216C10.4237 25.3656 10.4259 25.3659 10.428 25.3659C10.4301 25.3659 10.432 25.3656 10.4343 25.3656H11.9311C11.9829 25.3656 12.0249 25.4078 12.0249 25.4594V31.472C12.0249 31.5237 11.9829 31.5659 11.9311 31.5659H8.92486ZM8.92486 58.6223C8.87301 58.6223 8.831 58.58 8.831 58.5285V52.5159C8.831 52.4642 8.87301 52.422 8.92486 52.422H11.9311C11.9829 52.422 12.0249 52.4642 12.0249 52.5159V58.5285C12.0249 58.5801 11.9829 58.6223 11.9311 58.6223H8.92486ZM78.163 52.6097H76.5658C75.6852 52.6097 74.9687 51.8932 74.9687 51.0126V32.9751C74.9687 32.0945 75.6852 31.378 76.5658 31.378H78.163V52.6097ZM78.163 28.5597H76.5658C74.1311 28.5597 72.1504 30.5404 72.1504 32.9751V51.0127C72.1504 53.4475 74.1311 55.4282 76.5658 55.4282H78.163V64.6349H11.8372V61.4408H11.9311C13.537 61.4408 14.8434 60.1344 14.8434 58.5285V52.5159C14.8434 50.9099 13.537 49.6035 11.9311 49.6035H11.8372V34.3844H11.9311C13.537 34.3844 14.8434 33.078 14.8434 31.472V25.4594C14.8434 23.8535 13.537 22.5471 11.9311 22.5471H11.8372V19.353H78.163V28.5597Z" fill="#C94D00"/>
<path d="M55.522 30.0625C48.9432 30.0625 43.5908 35.4147 43.5908 41.9937C43.5908 48.5726 48.9432 53.9248 55.522 53.9248C62.1008 53.9248 67.4531 48.5726 67.4531 41.9937C67.4531 35.4147 62.1008 30.0625 55.522 30.0625ZM55.522 51.1063C50.4973 51.1063 46.4093 47.0184 46.4093 41.9937C46.4093 36.9689 50.4973 32.881 55.522 32.881C60.5467 32.881 64.6346 36.9689 64.6346 41.9937C64.6346 47.0184 60.5467 51.1063 55.522 51.1063Z" fill="#C94D00"/>
<path d="M61.5347 40.5845H61.2699C60.6361 37.9993 58.3001 36.0752 55.5221 36.0752C52.2585 36.0752 49.6035 38.7304 49.6035 41.9937C49.6035 45.2571 52.2585 47.9123 55.5221 47.9123C58.3001 47.9123 60.6357 45.988 61.2699 43.403H61.5347C62.3129 43.403 62.9439 42.7721 62.9439 41.9937C62.9439 41.2154 62.3129 40.5845 61.5347 40.5845ZM55.5221 45.0938C53.8126 45.0938 52.4218 43.703 52.4218 41.9936C52.4218 40.2841 53.8126 38.8933 55.5221 38.8933C57.2315 38.8933 58.6223 40.2841 58.6223 41.9936C58.6223 43.703 57.2315 45.0938 55.5221 45.0938Z" fill="#C94D00"/>
</svg>
