<svg width="90" height="90" viewBox="0 0 90 90" fill="none" xmlns="http://www.w3.org/2000/svg">
<path d="M88.1068 18.7423H46.8L41.3532 8.50148C41.0245 7.88344 40.3817 7.49707 39.6817 7.49707H1.89316C0.847793 7.49707 0 8.34486 0 9.39023V80.6098C0 81.655 0.847793 82.5029 1.89316 82.5029H88.1068C89.1522 82.5029 90 81.655 90 80.6098V20.6355C90 19.5901 89.1522 18.7423 88.1068 18.7423ZM3.78633 78.7168V11.2836H38.5443L43.991 21.5246C44.3197 22.1425 44.9626 22.5287 45.6625 22.5287H86.2135V78.7166H3.78633V78.7168Z" fill="#C94D00"/>
<path d="M28.712 18.781H28.7568C29.8024 18.781 30.65 17.9333 30.65 16.8878C30.65 15.8424 29.8024 14.9946 28.7568 14.9946H28.712C27.6666 14.9946 26.8188 15.8424 26.8188 16.8878C26.8188 17.9335 27.6666 18.781 28.712 18.781Z" fill="#C94D00"/>
<path d="M23.3281 14.9941H9.38975C8.34438 14.9941 7.49658 15.8419 7.49658 16.8873C7.49658 17.9329 8.34438 18.7805 9.38975 18.7805H23.3281C24.3735 18.7805 25.2213 17.9329 25.2213 16.8873C25.2213 15.8419 24.3735 14.9941 23.3281 14.9941Z" fill="#C94D00"/>
<path d="M62.9602 35.5718C57.2016 33.9942 51.165 31.4339 45.9625 28.3625C45.3688 28.012 44.6315 28.012 44.0376 28.3625C38.6079 31.568 33.0477 33.9261 27.04 35.5718C26.2172 35.7972 25.647 36.5449 25.647 37.3978V46.6555C25.647 56.5316 30.206 63.0717 34.0305 66.819C38.4354 71.1348 43.1801 73.1452 45.0001 73.1452C46.8202 73.1452 51.565 71.1348 55.9698 66.819C59.7941 63.0717 64.3533 56.5316 64.3533 46.6555V37.3978C64.3531 36.5449 63.7827 35.7973 62.9602 35.5718ZM60.567 46.6555C60.567 55.1064 56.7189 60.7222 53.4909 63.9452C49.6684 67.7617 45.7806 69.2666 45.0001 69.357C44.2197 69.2666 40.3319 67.7617 36.5094 63.9452C33.2813 60.7222 29.4333 55.1064 29.4333 46.6555V38.8276C34.8894 37.2198 40.005 35.0358 45.0008 32.1815C49.8874 34.9641 55.2218 37.2408 60.5671 38.8264L60.567 46.6555Z" fill="#C94D00"/>
<path d="M37.0635 49.3255C36.324 48.5862 35.1257 48.5862 34.386 49.3255C33.6467 50.0648 33.6467 51.2635 34.386 52.0028L40.5421 58.1588C40.9117 58.5285 41.3962 58.7134 41.8807 58.7134C42.3651 58.7134 42.8496 58.5287 43.2192 58.1588L55.6141 45.7642C56.3534 45.0248 56.3534 43.8262 55.6141 43.0867C54.8748 42.3473 53.6765 42.3475 52.9366 43.0867L41.8805 54.1428L37.0635 49.3255Z" fill="#C94D00"/>
<path d="M66.9108 71.2202H66.8658C65.8204 71.2202 64.9727 72.0678 64.9727 73.1134C64.9727 74.1588 65.8204 75.0065 66.8658 75.0065H66.9108C67.9562 75.0065 68.804 74.1586 68.804 73.1134C68.804 72.0678 67.9562 71.2202 66.9108 71.2202Z" fill="#C94D00"/>
<path d="M80.6098 71.2202H72.295C71.2495 71.2202 70.4019 72.0678 70.4019 73.1134C70.4019 74.1587 71.2497 75.0065 72.295 75.0065H80.6098C81.6552 75.0065 82.503 74.1587 82.503 73.1134C82.503 72.0678 81.6552 71.2202 80.6098 71.2202Z" fill="#C94D00"/>
</svg>
