<svg width="90" height="90" viewBox="0 0 90 90" fill="none" xmlns="http://www.w3.org/2000/svg">
<g clip-path="url(#clip0_6675_13295)">
<path d="M81.9833 15.541C69.6004 12.1481 57.1447 6.86499 45.9628 0.263012C45.3688 -0.0876707 44.6318 -0.0876707 44.038 0.263012C32.5335 7.05466 20.7509 12.0519 8.01642 15.541C7.19377 15.7662 6.62354 16.514 6.62354 17.367V36.711C6.62354 56.631 15.8132 69.8167 23.5226 77.3702C31.8223 85.5027 41.4902 90 45.0004 90C48.5102 90 58.1781 85.5027 66.4778 77.3702C74.187 69.8169 83.3762 56.6312 83.3762 36.711V17.3668C83.3762 16.514 82.8059 15.7662 81.9833 15.541ZM79.5898 36.7108C79.5898 55.316 71.0186 67.6198 63.8277 74.6654C55.6661 82.6626 46.9398 86.2134 45.0004 86.2134C43.061 86.2134 34.3342 82.6626 26.1723 74.6654C18.9816 67.6196 10.41 55.316 10.41 36.7108V18.804C22.5878 15.3464 33.9288 10.5211 45.0007 4.08695C55.7961 10.3504 67.703 15.4157 79.5898 18.8033V36.7108Z" fill="#C94D00"/>
<path d="M28.2197 18.5924C27.8365 17.6195 26.7373 17.1415 25.7642 17.5249C22.3822 18.8575 18.9108 20.0841 15.4467 21.1708C14.6573 21.4186 14.1201 22.1499 14.1201 22.9771V30.288C14.1201 31.3336 14.9679 32.1812 16.0133 32.1812C17.0586 32.1812 17.9064 31.3336 17.9064 30.288V24.3607C21.0141 23.3552 24.1184 22.2431 27.1522 21.0476C28.1251 20.6645 28.6031 19.5654 28.2197 18.5924Z" fill="#C94D00"/>
<path d="M31.8159 18.9514C32.0699 18.9514 32.3278 18.9003 32.5751 18.7924L32.6099 18.7772C33.5678 18.3575 33.9991 17.2425 33.5794 16.285C33.1593 15.3272 32.038 14.8939 31.0812 15.3133L31.0506 15.3265C30.0922 15.745 29.6595 16.8591 30.078 17.8171C30.3886 18.5283 31.0856 18.9514 31.8159 18.9514Z" fill="#C94D00"/>
<path d="M67.5565 61.0458C66.6817 60.474 65.5085 60.7199 64.936 61.5951C63.3759 63.9829 61.5457 66.2695 59.4954 68.3906C57.8093 70.1347 55.9822 71.7603 54.065 73.2219C53.2337 73.8558 53.0738 75.0437 53.7075 75.8754C54.0803 76.3639 54.644 76.6208 55.2143 76.6208C55.6147 76.6208 56.0181 76.4945 56.3609 76.2329C58.4289 74.656 60.3994 72.9029 62.2174 71.0224C64.4341 68.7295 66.4152 66.2545 68.1059 63.6661C68.678 62.7908 68.4318 61.6176 67.5565 61.0458Z" fill="#C94D00"/>
<path d="M49.6685 76.1913L49.5598 76.2553C48.6551 76.7793 48.3459 77.9373 48.8697 78.842C49.2208 79.4485 49.8562 79.787 50.5099 79.787C50.8316 79.787 51.1582 79.705 51.4565 79.5318L51.5818 79.4582C52.4841 78.9298 52.7872 77.7701 52.2588 76.8678C51.73 75.9659 50.5702 75.6634 49.6685 76.1913Z" fill="#C94D00"/>
<path d="M32.0954 41.1363C30.9329 39.9737 29.387 39.3338 27.7427 39.3338C26.0984 39.3338 24.5523 39.9739 23.3893 41.1363C20.9894 43.5368 20.9894 47.4426 23.3893 49.8429L34.5683 61.0215C35.7309 62.1838 37.2769 62.8238 38.9213 62.8238C40.5657 62.8238 42.1117 62.1838 43.2745 61.0212L66.6114 37.6841C69.0111 35.2831 69.0111 31.3778 66.611 28.9782C65.4484 27.8156 63.9024 27.1758 62.2578 27.1758C60.6134 27.1758 59.0674 27.8158 57.9046 28.9782L38.9211 47.9617L32.0954 41.1363ZM60.5821 31.6557C61.0294 31.2084 61.6248 30.9621 62.258 30.9621C62.8915 30.9621 63.4863 31.2084 63.9341 31.6557C64.8578 32.5795 64.8578 34.0831 63.9337 35.0072L40.5972 58.3438C40.1498 58.7912 39.5545 59.0375 38.9213 59.0375C38.2881 59.0375 37.6928 58.7912 37.2452 58.3438L26.0666 47.1656C25.1425 46.2415 25.1425 44.7379 26.0663 43.8141C26.5138 43.3668 27.1092 43.1202 27.7425 43.1202C28.3759 43.1202 28.9709 43.3664 29.4182 43.8138L37.5824 51.9781C37.9376 52.333 38.4189 52.5325 38.9211 52.5325C39.4233 52.5325 39.9046 52.3332 40.2595 51.9781L60.5821 31.6557Z" fill="#C94D00"/>
</g>
<defs>
<clipPath id="clip0_6675_13295">
<rect width="90" height="90" fill="white"/>
</clipPath>
</defs>
</svg>
