<svg width="48" height="48" viewBox="0 0 48 48" fill="none" xmlns="http://www.w3.org/2000/svg">
<path fill-rule="evenodd" clip-rule="evenodd" d="M30.4219 23.563L36.6855 29.8267L42.9492 23.563L36.6855 17.2994L30.4219 23.563ZM36.6855 34.0024L47.1249 23.563L36.6855 13.1236L26.2461 23.563L36.6855 34.0024Z" fill="#C94D00"/>
<path fill-rule="evenodd" clip-rule="evenodd" d="M17.2993 36.6861L23.563 42.9497L29.8266 36.6861L23.563 30.4224L17.2993 36.6861ZM23.563 47.1255L34.0024 36.6861L23.563 26.2467L13.1236 36.6861L23.563 47.1255Z" fill="#C94D00"/>
<path fill-rule="evenodd" clip-rule="evenodd" d="M17.2993 10.4395L23.563 16.7031L29.8266 10.4395L23.563 4.17586L17.2993 10.4395ZM23.563 20.8789L34.0024 10.4395L23.563 0.000100988L13.1236 10.4395L23.563 20.8789Z" fill="#C94D00"/>
<path fill-rule="evenodd" clip-rule="evenodd" d="M4.1763 23.563L10.4399 29.8267L16.7036 23.563L10.4399 17.2994L4.1763 23.563ZM10.4399 34.0024L20.8793 23.563L10.4399 13.1236L0.000538775 23.563L10.4399 34.0024Z" fill="#C94D00"/>
</svg>
