<svg width="90" height="90" viewBox="0 0 90 90" fill="none" xmlns="http://www.w3.org/2000/svg">
<g clip-path="url(#clip0_6639_13281)">
<path d="M50.5604 81.4394C49.9738 80.8529 49.0259 80.8529 48.4394 81.4394C47.8529 82.0259 47.8529 82.974 48.4394 83.5604L54.4394 89.5605C54.7319 89.853 55.116 90 55.4999 90C55.884 90 56.2679 89.853 56.5604 89.5605C57.1469 88.9741 57.1469 88.026 56.5604 87.4396L50.5604 81.4394Z" fill="#C94D00"/>
<path d="M64.5001 39.0001C68.6355 39.0001 72.0001 35.6357 72.0001 31.5001C72.0001 27.3645 68.6357 24 64.5001 24C60.3645 24 57 27.3645 57 31.5001C57 35.6357 60.3646 39.0001 64.5001 39.0001ZM64.5001 27.0001C66.981 27.0001 69.0001 29.0191 69.0001 31.5001C69.0001 33.981 66.981 36.0001 64.5001 36.0001C62.0191 36.0001 60.0001 33.981 60.0001 31.5001C60.0001 29.0191 62.0191 27.0001 64.5001 27.0001Z" fill="#C94D00"/>
<path d="M45.0002 72C44.1707 72 43.5003 72.672 43.5003 73.4999V77.3789L33.4398 87.4394C32.8534 88.026 32.8534 88.974 33.4398 89.5604C33.7323 89.8529 34.1164 89.9998 34.5003 89.9998C34.8844 89.9998 35.2683 89.8529 35.5608 89.5604L46.0607 79.0604C46.3427 78.7799 46.5002 78.3974 46.5002 77.9999V73.4999C46.5002 72.672 45.8297 72 45.0002 72Z" fill="#C94D00"/>
<path d="M88.5001 3.00006H46.4999V1.49994C46.4999 0.672012 45.8295 0 45 0C44.1705 0 43.5001 0.672012 43.5001 1.49994V2.99988H1.49994C0.67043 3.00006 0 3.67207 0 4.5V10.4999C0 11.3279 0.67043 11.9999 1.49994 11.9999H79.4999C80.3294 11.9999 80.9998 11.3279 80.9998 10.4999C80.9998 9.67201 80.3294 9 79.4999 9H2.99988V5.99994H86.9999V9H85.5C84.6705 9 84.0001 9.67201 84.0001 10.4999V61.4999C84.0001 63.9809 81.981 65.9999 79.5001 65.9999H10.4999C8.01896 65.9999 5.99994 63.9809 5.99994 61.4999V16.4999C5.99994 15.672 5.32951 14.9999 4.5 14.9999C3.67049 14.9999 3.00006 15.672 3.00006 16.4999V61.4999C3.00006 65.6353 6.36451 68.9999 10.5001 68.9999H79.5001C83.6355 68.9999 87.0001 65.6355 87.0001 61.4999V11.9999H88.5001C89.3296 11.9999 90 11.3279 90 10.4999V4.5C90 3.67207 89.3296 3.00006 88.5001 3.00006Z" fill="#C94D00"/>
<path d="M53.5604 48.4396C52.9738 47.853 52.0259 47.853 51.4394 48.4396C50.8529 49.026 50.8529 49.9742 51.4394 50.5606L53.379 52.5002L51.4394 54.4396C50.8529 55.0261 50.8529 55.9741 51.4394 56.5605C51.7319 56.853 52.116 57 52.4999 57C52.884 57 53.2679 56.853 53.5604 56.5605L55.5 54.621L57.4396 56.5605C57.7321 56.853 58.1161 57 58.5001 57C58.8841 57 59.268 56.853 59.5605 56.5605C60.1471 55.974 60.1471 55.026 59.5605 54.4396L57.621 52.5L59.5605 50.5604C60.1471 49.9738 60.1471 49.0259 59.5605 48.4394C58.9741 47.8529 58.026 47.8529 57.4396 48.4394L55.5 50.379L53.5604 48.4396Z" fill="#C94D00"/>
<path d="M21.063 48.2564C19.2885 48.8593 18 50.5243 18 52.4999C18 54.9809 20.019 56.9999 22.5 56.9999C24.981 56.9999 27 54.9809 27 52.4999C27 50.5695 25.773 48.933 24.0615 48.2954C24.6825 39.759 31.809 33 40.5 33H48.879L45.4395 36.4393C44.8531 37.0259 44.8531 37.9739 45.4395 38.5603C45.732 38.8528 46.116 38.9998 46.4999 38.9998C46.884 38.9998 47.2679 38.8528 47.5604 38.5603L53.559 32.5618C53.6985 32.4222 53.8081 32.2573 53.8845 32.0728C54.036 31.7068 54.036 31.2928 53.8845 30.9268C53.8081 30.7423 53.6985 30.5774 53.559 30.4394L47.5604 24.4394C46.9739 23.8529 46.0259 23.8529 45.4395 24.4394C44.8531 25.0259 44.8531 25.974 45.4395 26.5604L48.879 29.9999H40.5C30.1665 29.9999 21.7095 38.0834 21.063 48.2564ZM22.5 53.9999C21.6721 53.9999 21.0001 53.3265 21.0001 52.4999C21.0001 51.6734 21.6721 51 22.5 51C23.3279 51 23.9999 51.6734 23.9999 52.4999C23.9999 53.3265 23.3279 53.9999 22.5 53.9999Z" fill="#C94D00"/>
<path d="M15.4394 29.5604C15.7319 29.8529 16.116 29.9999 16.4999 29.9999C16.884 29.9999 17.2679 29.8529 17.5604 29.5604L19.5 27.6208L21.4396 29.5604C21.7321 29.8529 22.1161 29.9999 22.5001 29.9999C22.884 29.9999 23.268 29.8529 23.5605 29.5604C24.1471 28.9738 24.1471 28.0258 23.5605 27.4394L21.621 25.4999L23.5605 23.5603C24.1471 22.9737 24.1471 22.0257 23.5605 21.4393C22.974 20.8529 22.026 20.8529 21.4396 21.4393L19.5 23.3789L17.5604 21.4395C16.974 20.8531 16.0259 20.8531 15.4394 21.4395C14.8529 22.0261 14.8529 22.9741 15.4394 23.5605L17.379 25.5L15.4394 27.4394C14.8529 28.026 14.8529 28.974 15.4394 29.5604Z" fill="#C94D00"/>
</g>
<defs>
<clipPath id="clip0_6639_13281">
<rect width="90" height="90" fill="white"/>
</clipPath>
</defs>
</svg>
