<svg width="90" height="90" viewBox="0 0 90 90" fill="none" xmlns="http://www.w3.org/2000/svg">
<g clip-path="url(#clip0_6639_13283)">
<path d="M89.889 11.7856C89.6635 11.2407 89.1317 10.8856 88.5421 10.8856H79.1145V1.45791C79.1145 0.868148 78.7593 0.3367 78.2145 0.11102C77.6694 -0.11466 77.0427 0.0101346 76.6256 0.427089L65.3627 11.6899C63.3252 13.7277 62.203 16.4368 62.203 19.3185V25.7354L59.8267 28.1117C53.468 22.2485 44.9804 18.6609 35.6695 18.6609C16.0013 18.6609 0 34.6623 0 54.3305C0 73.9987 16.0013 90 35.6695 90C55.3377 90 71.3391 73.9989 71.3391 54.3305C71.3391 45.0197 67.7517 36.5322 61.8885 30.1734L64.2649 27.797H70.6817C73.5632 27.797 76.2724 26.6748 78.3101 24.6371L89.5729 13.3743C89.9899 12.9575 90.1147 12.3304 89.889 11.7856ZM65.1188 19.3185C65.1188 17.2157 65.9377 15.2386 67.4246 13.7518L76.1987 4.97763V11.7397L65.1188 22.8196V19.3185ZM68.4233 54.3305C68.4233 72.3909 53.73 87.0843 35.6695 87.0843C17.6091 87.0843 2.91577 72.3911 2.91577 54.3305C2.91577 36.2698 17.6091 21.5767 35.6695 21.5767C44.1764 21.5767 51.9354 24.8375 57.7646 30.1735L53.225 34.7132C48.5621 30.5361 42.4079 27.9914 35.6695 27.9914C21.1461 27.9914 9.33045 39.8072 9.33045 54.3305C9.33045 68.8537 21.1461 80.6696 35.6695 80.6696C50.193 80.6696 62.0086 68.8539 62.0086 54.3305C62.0086 47.5921 59.4641 41.4379 55.2868 36.775L59.8265 32.2354C65.1627 38.0646 68.4233 45.8236 68.4233 54.3305ZM40.432 54.3305C40.432 56.9564 38.2957 59.0929 35.6695 59.0929C33.0434 59.0929 30.9071 56.9566 30.9071 54.3305C30.9071 51.7043 33.0434 49.5681 35.6695 49.5681C36.4523 49.5681 37.191 49.7591 37.8432 50.095L34.6387 53.2995C34.0694 53.8688 34.0694 54.7919 34.6387 55.3611C34.9235 55.6457 35.2967 55.7882 35.6697 55.7882C36.0428 55.7882 36.416 55.6459 36.7008 55.3611L39.9052 52.1567C40.2411 52.8092 40.432 53.5479 40.432 54.3305ZM39.9674 47.971C38.7402 47.139 37.2608 46.6523 35.6697 46.6523C31.436 46.6523 27.9916 50.0968 27.9916 54.3305C27.9916 58.5642 31.436 62.0087 35.6697 62.0087C39.9034 62.0087 43.3479 58.5642 43.3479 54.3305C43.3479 52.7394 42.8614 51.26 42.0292 50.0328L46.6066 45.4555C48.5778 47.8802 49.7624 50.9692 49.7624 54.3305C49.7624 62.1014 43.4405 68.4233 35.6695 68.4233C27.8986 68.4233 21.5767 62.1014 21.5767 54.3305C21.5767 46.5596 27.8986 40.2376 35.6695 40.2376C39.0308 40.2376 42.1198 41.4222 44.5446 43.3936L39.9674 47.971ZM46.6153 41.323C43.6549 38.8279 39.8352 37.3218 35.6695 37.3218C26.2909 37.3218 18.6609 44.9518 18.6609 54.3305C18.6609 63.7091 26.2909 71.3391 35.6695 71.3391C45.0482 71.3391 52.6782 63.7091 52.6782 54.3305C52.6782 50.165 51.1721 46.3452 48.677 43.3847L53.2225 38.8392C56.8734 42.9712 59.0929 48.3961 59.0929 54.3303C59.0929 67.246 48.5852 77.7536 35.6695 77.7536C22.7539 77.7536 12.2462 67.2462 12.2462 54.3305C12.2462 41.4148 22.7539 30.9072 35.6695 30.9072C41.6039 30.9072 47.0288 33.1266 51.1606 36.7776L46.6153 41.323ZM76.2483 22.5754C74.7614 24.0625 72.7845 24.8812 70.6817 24.8812H67.1806L78.2605 13.8013H85.0226L76.2483 22.5754Z" fill="#C94D00"/>
</g>
<defs>
<clipPath id="clip0_6639_13283">
<rect width="90" height="90" fill="white"/>
</clipPath>
</defs>
</svg>
