<svg width="90" height="90" viewBox="0 0 90 90" fill="none" xmlns="http://www.w3.org/2000/svg">
<g clip-path="url(#clip0_6639_8188)">
<path d="M77.5396 64.8503L63.3163 61.3021C63.2632 61.222 63.2049 61.1448 63.1353 61.0752L58.8987 56.8368V52.7797C59.2513 52.4212 59.5965 52.0492 59.9324 51.6614C63.8854 47.0962 66.2622 40.9461 66.6251 34.3438C66.6397 34.0789 66.6531 33.8145 66.6663 33.5504C66.7104 32.6768 66.752 31.8518 66.8354 31.0193L68.2381 16.9911C68.6716 12.655 67.2434 8.31538 64.3195 5.08432C61.3956 1.85307 57.219 0 52.8613 0H37.1391C32.7814 0 28.605 1.85307 25.6809 5.08413C22.7568 8.31518 21.3286 12.6552 21.7621 16.9911L23.1638 31.0098C23.2474 31.8454 23.2896 32.6774 23.3341 33.5583C23.3473 33.8202 23.3605 34.082 23.3749 34.3438C23.7378 40.9461 26.1146 47.0962 30.0676 51.6614C30.4033 52.0492 30.7487 52.421 31.1013 52.7797V56.8368L26.8645 61.075C26.7967 61.1429 26.7395 61.2177 26.6874 61.2954L12.46 64.8505C6.43083 66.3578 3.11035 70.0583 3.11035 75.2703V85.432C3.11035 87.9508 5.15955 90 7.67839 90H82.322C84.8409 90 86.8901 87.9508 86.8901 85.432V75.2701C86.8901 70.0583 83.5696 66.3578 77.5396 64.8503ZM43.4451 80.6695H46.5553C46.6637 80.6695 46.7709 80.6643 46.8776 80.6569L47.9716 87.0842H42.0288L43.1228 80.6569C43.2296 80.6643 43.3367 80.6695 43.4451 80.6695ZM48.2075 76.1015C48.2075 77.0126 47.4664 77.7538 46.5553 77.7538H43.4451C42.534 77.7538 41.7929 77.0126 41.7929 76.1015V73.7716L45.0002 71.6334L48.2075 73.7716V76.1015ZM34.0175 55.2794C37.3154 57.6369 41.0876 58.8985 45.0002 58.8985C48.9128 58.8985 52.685 57.6369 55.9829 55.2794V56.8368L45.0002 67.8196L34.0175 56.8368V55.2794ZM50.4824 71.7838C50.4809 71.7829 50.4793 71.7819 50.4778 71.7807L47.2885 69.6546L57.4406 59.5024L60.2985 62.3613C59.3341 64.1012 57.0693 68.177 53.8717 73.9271C53.8657 73.938 53.8531 73.9606 53.8173 73.9693C53.7761 73.9794 53.7465 73.9598 53.7368 73.9534L50.4824 71.7838ZM27.8429 7.04061C30.2151 4.41914 33.6036 2.91577 37.1391 2.91577H52.8613C56.397 2.91577 59.7853 4.41914 62.1577 7.04061C64.53 9.66188 65.6887 13.183 65.3369 16.7007L64.4491 25.5779C62.4792 20.8835 60.2998 17.8766 60.1715 17.7014C59.7069 17.0675 58.8229 16.9163 58.174 17.3595C54.3427 19.9751 37.2791 20.3081 31.0261 20.216C30.6043 20.208 30.2002 20.3865 29.9187 20.701C28.1321 22.6952 26.7265 24.9374 25.6838 26.9036L24.6637 16.7009C24.3117 13.1832 25.4706 9.66207 27.8429 7.04061ZM26.2866 34.1839C26.2724 33.9261 26.2594 33.6686 26.2464 33.4108C26.2374 33.2326 26.2281 33.0522 26.2186 32.8716C26.5327 31.9797 28.3551 27.0643 31.6623 23.1393C35.6964 23.1747 52.173 23.1483 58.5099 20.4607C59.7594 22.4318 62.3937 27.0459 63.7834 32.8381C63.7733 33.0275 63.7637 33.2164 63.7542 33.4032C63.741 33.6631 63.728 33.9232 63.7136 34.1839C63.0418 46.4075 54.8219 55.9827 45.0002 55.9827C35.1785 55.9827 26.9586 46.4075 26.2866 34.1839ZM32.5598 59.5024L42.7119 69.6546L39.5221 71.7811C39.5209 71.7819 39.5195 71.7829 39.5184 71.7837L36.2636 73.9536C36.2541 73.9602 36.2245 73.9796 36.1831 73.9695C36.1474 73.961 36.1347 73.9382 36.1289 73.9275C32.9313 68.1772 30.6665 64.1014 29.7021 62.3615L32.5598 59.5024ZM6.02612 85.432V75.2703C6.02612 71.4178 8.42871 68.8638 13.167 67.6792L27.3518 64.1352C28.1924 65.653 29.9352 68.7892 33.5807 75.3446C33.987 76.0751 34.6856 76.6069 35.4969 76.8032C35.7294 76.8596 35.966 76.8872 36.202 76.8872C36.7937 76.8872 37.3805 76.713 37.8811 76.3795L38.8773 75.7153V76.1013C38.8773 77.4352 39.4521 78.6371 40.3669 79.4731L39.0713 87.0842H20.0218V79.2117C20.0218 78.4065 19.3691 77.7538 18.5639 77.7538C17.7588 77.7538 17.106 78.4065 17.106 79.2117V87.0842H7.67839C6.76731 87.0842 6.02612 86.343 6.02612 85.432ZM83.9743 85.432C83.9743 86.343 83.2331 87.0842 82.322 87.0842H72.8944V79.2117C72.8944 78.4065 72.2416 77.7538 71.4365 77.7538C70.6313 77.7538 69.9786 78.4065 69.9786 79.2117V87.0842H50.9291L49.6335 79.4733C50.5483 78.6375 51.1231 77.4354 51.1231 76.1015V75.7155L52.1193 76.3797C52.6199 76.7134 53.2067 76.8874 53.7984 76.8874C54.0344 76.8874 54.2712 76.8596 54.5035 76.8034C55.3148 76.6069 56.0134 76.0753 56.4197 75.3446C60.0613 68.796 61.8044 65.6596 62.6458 64.1399L76.833 67.6792C81.5717 68.8638 83.9743 71.4178 83.9743 75.2701V85.432Z" fill="#C94D00"/>
</g>
<defs>
<clipPath id="clip0_6639_8188">
<rect width="90" height="90" fill="white"/>
</clipPath>
</defs>
</svg>
