<svg width="40" height="40" viewBox="0 0 40 40" fill="none" xmlns="http://www.w3.org/2000/svg">
<path d="M27.995 26.38H26.5V25.4963C26.5 25.1225 26.8725 24.75 27.245 24.75H27.3738C27.7513 24.75 28.1275 25.1225 28.1275 25.4963V26.38H27.995ZM22.2438 24.5C21.8713 24.5 21.4938 24.75 21.4938 25.1225V29.3787C21.4938 29.7513 21.75 30.0037 22.2438 30.0037C22.62 30.0037 22.9963 29.7513 22.9963 29.3787V25.0037C22.9938 24.75 22.62 24.5 22.2438 24.5ZM31.5013 22.125V30.2463C31.5013 32.2513 29.7488 33.75 27.7475 33.75H12.2463C10.2463 33.75 8.49878 32.125 8.49878 30.2463V22.125C8.49878 20.1263 10.125 18.6225 12.2463 18.6225H27.625C29.7488 18.6225 31.5013 20.1275 31.5013 22.125ZM13.3738 31.13V22.6187H15.25V21.3788H10.125V22.6187H11.7488V31.2425L13.3738 31.13ZM19 23.88H17.4963V29.495C17.4963 29.75 17.25 29.8713 17 29.8713C16.8738 29.8713 16.6225 29.75 16.6225 29.3775V23.745H14.9975V29.75C14.9975 30.1225 14.9975 30.62 15.3738 30.8737C16.1263 31.3713 17.4963 30.7538 17.75 30.0025V30.9963H19V23.88ZM24.1225 29.0025V25.25C24.1225 23.7463 22.9963 22.8763 21.625 24.1225V21.2488H19.9975V30.9975H21.2488L21.3788 30.3787C23.1288 31.9975 24.1225 30.875 24.1225 29.0025ZM29.1188 28.5H27.8813V29.3787C27.8813 29.7513 27.625 30.0037 27.245 30.0037H26.9975C26.62 30.0037 26.38 29.7513 26.38 29.3787V27.6275H29.1188V24.6325C28.8775 23.2525 26.9975 22.9963 26.0038 23.75C25.75 24.0025 25.4938 24.2562 25.3788 24.6325C25.25 25.0075 25.12 25.4963 25.12 26.25V28.5C25.12 32.37 29.495 31.8812 29.1188 28.5ZM22.9938 16.2487C23.1275 16.5025 23.245 16.6237 23.3725 16.7475C23.5025 16.8775 23.7488 16.8775 23.9988 16.8775C24.2538 16.8775 24.3713 16.7475 24.6288 16.6237C24.75 16.5025 25.0038 16.2487 25.1238 16.0012V16.6237H26.875V9.12625H25.495V14.9987C25.495 15.375 25.255 15.6263 24.8775 15.6263C24.5013 15.6263 24.255 15.375 24.255 14.9987V9.25H22.7575V15.6263C22.8738 15.8725 22.8738 16.0012 22.9938 16.2487ZM17.6225 12.0025C17.6225 11.2525 17.6225 10.7525 17.7513 10.2513C17.8725 9.87625 18.1275 9.5025 18.375 9.25375C18.74 8.99738 19.1779 8.86544 19.6238 8.8775C19.9988 8.8775 20.3713 9 20.6275 9.1275C20.8738 9.25375 21.1225 9.5025 21.25 9.75C21.38 10.0038 21.4938 10.2512 21.6263 10.5037C21.6263 10.7525 21.7538 11.1287 21.7538 11.7513V13.75C21.7538 14.5025 21.7538 14.9987 21.6263 15.2525C21.6263 15.6262 21.4963 15.8725 21.25 16.125C21.1072 16.3884 20.891 16.6047 20.6275 16.7475C20.3161 16.9056 19.973 16.9915 19.6238 16.9987C19.2513 16.9987 18.875 16.9987 18.6238 16.875C18.375 16.7463 18.1275 16.6213 17.9988 16.3762C17.8524 16.0931 17.7275 15.7993 17.625 15.4975C17.4975 15.1237 17.4975 14.6225 17.4975 14.0013L17.6225 12.0025ZM19 14.9987C19 15.375 19.3763 15.7525 19.7513 15.7525C20.1275 15.7525 20.4963 15.375 20.4963 14.9987V10.9975C20.4963 10.6213 20.1275 10.2488 19.7513 10.2488C19.3763 10.2488 19 10.6213 19 10.9975V14.9987ZM14.125 17H15.75V11.2513L17.75 6.25H15.8713L14.875 10.0013L13.7488 6.25H12L14.125 11.2513V17Z" fill="white"/>
</svg>
